HIERARCHY
ROOT Hips
{
  OFFSET 53.7682 85.5181 14.8445
  CHANNELS 6 Xposition Yposition Zposition Zrotation Xrotation Yrotation
  JOINT spine
  {
    OFFSET 0 6.3926 0.367606
    CHANNELS 3 Zrotation Xrotation Yrotation
    JOINT spine1
    {
      OFFSET 0 9.17611 0
      CHANNELS 3 Zrotation Xrotation Yrotation
      JOINT spine2
      {
        OFFSET 0 8.79238 0
        CHANNELS 3 Zrotation Xrotation Yrotation
        JOINT Neck
        {
          OFFSET 0 22.5737 1.07624
          CHANNELS 3 Zrotation Xrotation Yrotation
          JOINT Head
          {
            OFFSET 0 6.82011 0
            CHANNELS 3 Zrotation Xrotation Yrotation
            End Site
            {
              OFFSET 0 16.5085 -5.44427
            }
          }
        }
        JOINT RightShoulder
        {
          OFFSET -3.70221 9.49509 -0.515508
          CHANNELS 3 Zrotation Xrotation Yrotation
          JOINT RightArm
          {
            OFFSET 0 12.4537 0
            CHANNELS 3 Zrotation Xrotation Yrotation
            JOINT RightArmRoll
            {
              OFFSET 0 6.28686 0
              CHANNELS 3 Zrotation Xrotation Yrotation
              JOINT RightForeArm
              {
                OFFSET 0 18.3114 0
                CHANNELS 3 Zrotation Xrotation Yrotation
                JOINT RightForeArmRoll
                {
                  OFFSET 0 7.05483 0
                  CHANNELS 3 Zrotation Xrotation Yrotation
                  JOINT RightHand
                  {
                    OFFSET 0 14.1575 0
                    CHANNELS 3 Zrotation Xrotation Yrotation
                    End Site
                    {
                      OFFSET 0 0 0
                    }
                  }
                }
              }
            }
          }
        }
        JOINT LeftShoulder
        {
          OFFSET 3.70221 9.49509 -0.515508
          CHANNELS 3 Zrotation Xrotation Yrotation
          JOINT LeftArm
          {
            OFFSET 0 12.4537 0
            CHANNELS 3 Zrotation Xrotation Yrotation
            JOINT LeftArmRoll
            {
              OFFSET 0 6.28686 0
              CHANNELS 3 Zrotation Xrotation Yrotation
              JOINT LeftForeArm
              {
                OFFSET 0 18.3114 0
                CHANNELS 3 Zrotation Xrotation Yrotation
                JOINT LeftForeArmRoll
                {
                  OFFSET 0 7.05483 0
                  CHANNELS 3 Zrotation Xrotation Yrotation
                  JOINT LeftHand
                  {
                    OFFSET 0 14.1575 0
                    CHANNELS 3 Zrotation Xrotation Yrotation
                    End Site
                    {
                      OFFSET 0 0 0
                    }
                  }
                }
              }
            }
          }
        }
      }
    }
  }
  JOINT RightUpLeg
  {
    OFFSET -5.66616 -1.03903 -0.87161
    CHANNELS 3 Zrotation Xrotation Yrotation
    JOINT RightUpLegRoll
    {
      OFFSET 0 16.6005 0
      CHANNELS 3 Zrotation Xrotation Yrotation
      JOINT RightLeg
      {
        OFFSET 0 -20.5572 0
        CHANNELS 3 Zrotation Xrotation Yrotation
        JOINT RightLegRoll
        {
          OFFSET 0 20.6244 0
          CHANNELS 3 Zrotation Xrotation Yrotation
          JOINT RightFoot
          {
            OFFSET 0 17.1664 0
            CHANNELS 3 Zrotation Xrotation Yrotation
            JOINT RightToeBase
            {
              OFFSET 0 14.3502 0
              CHANNELS 3 Zrotation Xrotation Yrotation
              End Site
              {
                OFFSET 0.00608252 6.94971 -0.801061
              }
            }
          }
        }
      }
    }
  }
  JOINT LeftUpLeg
  {
    OFFSET 5.66616 -1.03903 -0.87161
    CHANNELS 3 Zrotation Xrotation Yrotation
    JOINT LeftUpLegRoll
    {
      OFFSET 0 16.6006 0
      CHANNELS 3 Zrotation Xrotation Yrotation
      JOINT LeftLeg
      {
        OFFSET 0 20.5571 0
        CHANNELS 3 Zrotation Xrotation Yrotation
        JOINT LeftLegRoll
        {
          OFFSET 0 20.8151 0
          CHANNELS 3 Zrotation Xrotation Yrotation
          JOINT LeftFoot
          {
            OFFSET 0 16.9757 0
            CHANNELS 3 Zrotation Xrotation Yrotation
            JOINT LeftToeBase
            {
              OFFSET 0 14.3502 0
              CHANNELS 3 Zrotation Xrotation Yrotation
              End Site
              {
                OFFSET -0.0272592 6.94971 -0.80106
              }
            }
          }
        }
      }
    }
  }
}
MOTION
Frames: 6
Frame Time: 0.00208333
53.4541 85.3505 11.7501 -1.09574 1.32323 -10.8356 -0.478016 -1.55706 -0.767198 -0.968833 0.895015 -1.48498 -0.951608 2.53972 -1.46942 3.11158 23.2925 -8.23136 -4.15125 3.5528 -7.27966 57.8163 -3.58858 -2.11526 108.766 20.2361 -43.2141 7.32428e-007 -1.14285e-006 -2.84307e-006 -164.639 50.7969 135.424 -6.13948e-006 4.1151e-007 -2.99999 8.02891 -4.95144 0.697692 -52.3953 2.29308 -2.45044 -105.93 20.1105 22.3705 5.87276e-006 -2.31374e-006 4.22993e-006 168.96 56.7348 -151.59 -7.47733e-006 1.06425e-007 2.99999 -8.02897 -4.95148 -0.697691 173.714 7.77242 1.5736 180 7.01577e-015 179.062 176.369 7.48828 179.737 -1.26356e-006 7.58204e-007 0.0126271 -16.6594 66.4483 18.3604 8.13665 25.2351 -3.48451 -172.041 1.70618 -0.95245 4.54188e-006 -4.6773e-006 -1.01005 -0.720975 -10.2623 0.478731 2.67679e-006 -5.44047e-006 -0.356068 22.8832 72.652 -24.3872 -8.12717 25.2229 3.49789 
53.4775 85.3501 11.7076 -1.06394 1.32786 -10.542 -0.475045 -1.56152 -0.748726 -0.962628 0.885894 -1.44838 -0.945836 2.53061 -1.43291 2.79741 23.3546 -8.26671 -3.68996 3.5162 -7.41541 57.6144 -3.40489 -1.98187 108.796 20.4967 -42.4268 7.32428e-007 -1.14285e-006 -2.84307e-006 -164.836 51.0297 136.137 -6.13948e-006 4.1151e-007 -2.99999 8.02891 -4.95144 0.697692 -52.5521 2.2207 -2.37514 -105.916 20.0165 23.341 5.87276e-006 -2.31374e-006 4.22993e-006 168.716 56.7303 -150.87 -7.47733e-006 1.06425e-007 2.99999 -8.02897 -4.95148 -0.697691 173.673 7.714 1.59913 180 7.01577e-015 179.06 176.369 7.48233 179.736 -1.26356e-006 7.58204e-007 0.0114632 -16.6588 66.4548 18.3651 8.13665 25.2351 -3.48451 -172.044 1.78376 -0.943292 4.54188e-006 -4.6773e-006 -1.00866 -0.724819 -10.2037 0.482333 2.67679e-006 -5.44047e-006 -0.34379 22.686 72.5402 -24.2318 -8.12732 25.2242 3.49621 
53.4621 85.3512 11.7077 -1.03114 1.33275 -10.2477 -0.472323 -1.56603 -0.730133 -0.956916 0.876676 -1.41152 -0.94056 2.52141 -1.39613 2.4847 23.4176 -8.3039 -3.23098 3.48073 -7.55261 57.41 -3.21982 -1.84635 108.822 20.7626 -41.6277 7.32428e-007 -1.14285e-006 -2.84307e-006 -165.037 51.2685 136.863 -6.13948e-006 4.1151e-007 -2.99999 8.02891 -4.95144 0.697692 -52.7036 2.14837 -2.30129 -105.898 19.9228 24.3073 5.87276e-006 -2.31374e-006 4.22993e-006 168.466 56.7299 -150.145 -7.47733e-006 1.06425e-007 2.99999 -8.02897 -4.95148 -0.697691 173.63 7.65599 1.62536 180 7.01576e-015 179.059 176.369 7.47655 179.736 -1.26356e-006 7.58204e-007 0.0102996 -16.6577 66.4611 18.3698 8.13665 25.2351 -3.48451 -172.049 1.86209 -0.932653 4.54188e-006 -4.6773e-006 -1.00726 -0.728175 -10.1449 0.486036 2.67679e-006 -5.44047e-006 -0.331398 22.4884 72.427 -24.0766 -8.12749 25.2259 3.49404 
53.4397 85.3535 11.699 -0.997466 1.33787 -9.95263 -0.469864 -1.5705 -0.711541 -0.951723 0.867541 -1.37463 -0.935803 2.51229 -1.35931 2.17382 23.48 -8.34276 -2.77491 3.44768 -7.69105 57.2025 -3.0334 -1.70859 108.843 21.0328 -40.8222 7.32428e-007 -1.14285e-006 -2.84307e-006 -165.24 51.5124 137.597 -6.13948e-006 4.1151e-007 -2.99999 8.02891 -4.95144 0.697692 -52.8498 2.0752 -2.22814 -105.878 19.8302 25.2678 5.87276e-006 -2.31374e-006 4.22993e-006 168.213 56.73 -149.42 -7.47733e-006 1.06425e-007 2.99999 -8.02897 -4.95148 -0.697691 173.587 7.59829 1.65212 180 7.01576e-015 179.057 176.368 7.47087 179.736 -1.26356e-006 7.58204e-007 0.00915653 -16.6563 66.4673 18.3743 8.13665 25.2351 -3.48451 -172.056 1.94089 -0.92036 4.54188e-006 -4.6773e-006 -1.00589 -0.730807 -10.0857 0.489799 2.67679e-006 -5.44047e-006 -0.318987 22.2918 72.3126 -23.9221 -8.12769 25.2278 3.49155 
53.4394 85.3171 11.6887 -0.963065 1.34321 -9.65678 -0.467681 -1.57484 -0.693071 -0.947075 0.858674 -1.33796 -0.93159 2.50343 -1.3227 1.86513 23.5402 -8.38316 -2.32229 3.41839 -7.83052 56.9914 -2.84569 -1.56847 108.862 21.3061 -40.0155 7.32428e-007 -1.14285e-006 -2.84307e-006 -165.443 51.7609 138.332 -6.13948e-006 4.1151e-007 -2.99999 8.02891 -4.95144 0.697692 -52.991 2.00028 -2.15494 -105.859 19.7392 26.2209 5.87276e-006 -2.31374e-006 4.22993e-006 167.958 56.7271 -148.698 -7.47733e-006 1.06425e-007 2.99999 -8.02897 -4.95148 -0.697691 173.542 7.5408 1.67921 180 7.01576e-015 179.056 176.368 7.46521 179.736 -1.26356e-006 7.58204e-007 0.00805436 -16.6546 66.4734 18.3788 8.13665 25.2351 -3.48451 -172.065 2.01992 -0.906237 4.54188e-006 -4.6773e-006 -1.00453 -0.732477 -10.0259 0.49358 2.67679e-006 -5.44047e-006 -0.306651 22.0972 72.1972 -23.7688 -8.12788 25.2299 3.48895 
53.4036 85.3231 11.752 -0.928069 1.34873 -9.36014 -0.465785 -1.57896 -0.674845 -0.943001 0.850257 -1.30175 -0.927945 2.49502 -1.28653 1.559 23.5969 -8.42495 -1.87368 3.39415 -7.9708 56.7761 -2.65672 -1.42587 108.879 21.5816 -39.213 7.32428e-007 -1.14285e-006 -2.84307e-006 -165.645 52.0132 139.065 -6.13948e-006 4.1151e-007 -2.99999 8.02891 -4.95144 0.697692 -53.1274 1.92269 -2.08094 -105.842 19.6507 27.1649 5.87276e-006 -2.31374e-006 4.22993e-006 167.706 56.7179 -147.982 -7.47733e-006 1.06425e-007 2.99999 -8.02897 -4.95148 -0.697691 173.497 7.48342 1.70646 180 7.01575e-015 179.054 176.368 7.45956 179.735 -1.26356e-006 7.58204e-007 0.0070134 -16.6529 66.4795 18.3833 8.13665 25.2351 -3.48451 -172.076 2.09891 -0.890107 4.54188e-006 -4.6773e-006 -1.00321 -0.732949 -9.96535 0.497338 2.67679e-006 -5.44047e-006 -0.294483 21.906 72.0812 -23.6172 -8.12808 25.2319 3.48641 
